<?xml version="1.0" standalone="no"?>
<!DOCTYPE svg PUBLIC "-//W3C//DTD SVG 20010904//EN"
 "http://www.w3.org/TR/2001/REC-SVG-20010904/DTD/svg10.dtd">
<svg version="1.0" xmlns="http://www.w3.org/2000/svg"
 width="1024.000000pt" height="1024.000000pt" viewBox="0 0 1024.000000 1024.000000"
 preserveAspectRatio="xMidYMid meet">

<g transform="translate(0.000000,1024.000000) scale(0.100000,-0.100000)"
fill="#000000" stroke="none">
<path d="M373 9714 c-37 -18 -78 -75 -88 -121 -15 -74 39 -159 120 -185 l40
-13 12 -93 c6 -52 13 -102 16 -113 4 -13 -5 -24 -29 -38 -63 -38 -69 -118 -13
-165 17 -14 37 -26 44 -26 18 0 31 -46 56 -200 11 -69 31 -178 45 -243 13 -64
24 -123 24 -130 0 -7 -13 -28 -29 -46 -17 -19 -34 -53 -39 -78 -19 -87 19
-149 96 -155 l43 -3 53 -130 c29 -71 79 -191 110 -265 60 -146 64 -164 40
-191 -27 -30 -35 -87 -17 -130 21 -55 54 -73 118 -65 59 7 51 14 156 -144 31
-47 78 -109 103 -139 40 -45 46 -58 41 -82 -9 -40 16 -71 72 -89 34 -11 54
-25 71 -50 20 -30 22 -41 16 -102 -6 -66 -6 -68 25 -99 29 -28 36 -31 78 -26
25 2 57 14 72 24 l26 20 110 -64 c61 -35 156 -89 213 -120 l102 -56 0 -48 c0
-61 13 -96 53 -137 44 -46 78 -62 132 -62 61 0 119 31 150 80 14 22 28 40 31
40 10 0 174 -49 264 -80 47 -15 137 -44 200 -64 111 -34 116 -37 150 -83 31
-43 40 -48 78 -51 54 -4 86 15 110 66 20 42 21 43 294 92 151 27 169 28 195
15 44 -23 70 -18 116 24 23 21 62 49 86 61 l45 22 23 -28 c31 -39 29 -55 -15
-135 -36 -67 -38 -69 -77 -69 -70 0 -120 -45 -139 -122 -5 -21 -24 -38 -79
-69 -39 -22 -63 -38 -52 -34 11 4 32 11 46 15 14 4 36 13 47 19 13 7 23 7 27
2 3 -6 -25 -34 -62 -64 -79 -62 -104 -77 -132 -77 -12 0 -21 -6 -21 -14 0 -19
-133 -136 -188 -166 -36 -20 -46 -22 -62 -12 -29 18 -84 15 -102 -5 -9 -10
-19 -33 -23 -51 -4 -18 -15 -37 -25 -42 -30 -16 -88 -12 -140 11 -46 20 -49
20 -81 3 -19 -9 -52 -31 -74 -49 -57 -46 -78 -55 -127 -55 -52 0 -105 -30
-114 -63 -23 -95 65 -151 134 -86 12 10 26 37 32 59 l11 40 79 0 c69 0 79 -2
85 -19 11 -35 46 -71 70 -71 30 0 44 19 59 77 12 45 11 49 -8 58 -12 6 -21 19
-21 30 0 16 10 22 47 29 45 9 49 8 79 -22 40 -39 90 -50 124 -28 28 18 48 80
39 122 -5 28 -2 30 61 58 37 16 90 50 118 77 250 230 262 238 297 217 29 -18
34 -49 16 -93 -18 -42 -21 -75 -6 -75 15 0 31 38 39 88 6 44 8 46 55 61 59 19
86 52 93 113 5 44 6 45 90 91 66 36 89 44 103 37 10 -6 37 -10 60 -10 32 0 47
6 66 27 38 41 40 66 8 118 -25 38 -34 45 -61 45 -19 0 -43 -10 -62 -25 -25
-22 -30 -34 -33 -78 l-3 -52 -80 -28 c-44 -16 -87 -29 -95 -30 -26 -3 -21 28
17 103 36 71 40 75 75 78 54 5 88 48 88 112 0 53 7 62 65 79 22 7 57 19 77 28
36 15 38 15 68 -11 25 -20 42 -26 81 -26 50 0 79 17 105 62 7 12 28 16 99 18
118 3 112 5 125 -35 10 -30 9 -40 -9 -69 -12 -18 -21 -45 -21 -60 0 -29 -14
-35 -24 -10 -5 13 -15 15 -48 11 -49 -7 -68 -27 -68 -75 0 -40 11 -62 58 -120
30 -38 39 -43 63 -38 16 3 46 17 68 31 35 24 42 25 64 13 30 -16 94 -91 115
-136 14 -29 14 -37 1 -75 -15 -39 -19 -42 -53 -44 -20 0 -50 -7 -67 -13 -24
-10 -29 -18 -29 -46 0 -19 5 -54 12 -79 11 -41 10 -47 -10 -74 -32 -43 -26
-62 7 -23 31 36 46 39 79 14 22 -17 23 -22 20 -152 l-3 -135 -28 -3 c-21 -3
-35 5 -65 38 -36 41 -37 44 -37 117 0 62 -3 77 -19 89 -22 16 -84 10 -128 -13
-45 -22 -37 -84 18 -144 l24 -25 -33 -85 c-33 -80 -36 -85 -78 -100 -37 -14
-46 -23 -59 -58 -14 -41 -14 -44 13 -92 19 -34 25 -55 19 -67 -5 -9 -21 -62
-36 -117 -16 -55 -30 -105 -32 -112 -2 -7 -19 -19 -39 -27 -46 -20 -68 -68
-55 -118 12 -42 23 -55 79 -98 38 -29 43 -31 37 -12 -15 46 39 109 98 114 35
3 41 0 59 -30 19 -33 19 -34 0 -100 l-20 -67 -46 -3 c-62 -4 -89 -37 -85 -100
2 -35 9 -49 30 -65 27 -20 29 -20 83 -3 30 9 59 15 64 12 4 -3 4 20 -1 52 -14
86 9 222 37 222 21 0 32 -27 44 -115 6 -44 14 -97 17 -117 6 -34 4 -39 -24
-55 -26 -15 -32 -26 -38 -69 -12 -101 33 -151 127 -141 44 5 47 4 61 -26 9
-18 34 -57 57 -87 45 -60 47 -66 26 -94 -18 -23 -19 -59 -4 -87 9 -17 20 -20
88 -18 l77 2 -4 31 c-2 17 -7 54 -12 81 l-8 51 94 98 c77 82 95 96 100 81 8
-19 -46 -267 -68 -313 -10 -20 -24 -29 -54 -36 -41 -9 -42 -10 -48 -62 -4 -32
-1 -67 7 -90 10 -32 21 -43 70 -67 42 -21 57 -34 57 -50 0 -11 9 -54 21 -95
l21 -74 -39 -46 c-55 -66 -64 -92 -51 -136 11 -34 10 -38 -12 -53 -13 -9 -63
-50 -111 -90 -48 -40 -93 -73 -101 -73 -7 0 -22 7 -32 15 -33 25 -82 19 -118
-14 -31 -28 -33 -33 -30 -89 l2 -60 -56 -51 -55 -51 -59 7 c-67 7 -104 -9
-120 -53 -5 -13 -16 -24 -25 -24 -27 0 -112 37 -147 64 -36 27 -58 33 -58 16
0 -5 -24 -10 -53 -10 -76 0 -99 -19 -95 -78 3 -41 7 -49 42 -73 61 -41 71 -67
51 -144 -10 -42 -13 -81 -9 -119 7 -58 -2 -71 -27 -40 -34 42 -98 41 -117 -1
-18 -39 -15 -63 13 -90 38 -38 70 -33 102 17 33 53 51 68 69 61 20 -7 18 -23
-15 -94 -16 -35 -41 -90 -55 -123 -21 -47 -29 -56 -40 -47 -18 15 -79 -10
-100 -41 -19 -26 -21 -86 -5 -122 17 -36 61 -52 99 -36 38 16 60 56 60 109 0
28 8 48 26 70 31 38 41 38 104 5 64 -33 95 -27 116 22 19 45 10 90 -22 111
-32 20 -40 37 -49 96 -7 46 -6 48 31 82 38 35 38 36 39 111 0 73 1 77 36 114
36 37 36 37 60 19 30 -23 53 -23 106 0 52 24 67 51 61 112 -5 47 -4 50 49 103
l53 56 52 -14 c71 -18 109 -9 128 31 18 39 20 39 220 14 199 -25 235 -47 134
-84 -72 -26 -252 -119 -281 -144 -29 -28 -28 -28 -53 -3 -26 26 -80 26 -114
-1 -21 -16 -26 -29 -26 -63 0 -56 30 -86 87 -86 37 0 42 -3 52 -31 17 -49 13
-120 -8 -155 -24 -39 -112 -74 -186 -74 -63 0 -67 -6 -70 -100 -3 -65 -46
-264 -65 -301 -8 -14 -21 -19 -50 -19 -50 0 -77 -25 -85 -77 -3 -21 -9 -59
-13 -84 -6 -37 -5 -46 5 -42 7 3 16 -2 19 -11 6 -17 -39 -86 -57 -86 -14 0
-11 28 8 58 14 24 13 23 -13 -5 -23 -26 -46 -36 -108 -52 -87 -22 -96 -20
-154 30 -32 28 -72 39 -72 19 0 -5 29 -29 65 -52 67 -45 78 -66 52 -103 -11
-15 -22 -17 -55 -12 -50 8 -94 -6 -86 -27 5 -12 22 -15 81 -13 64 2 77 -1 89
-17 19 -27 18 -34 -16 -91 -59 -97 -72 -110 -106 -107 -39 4 -94 -39 -94 -73
0 -13 12 -38 26 -55 25 -29 26 -35 20 -103 -5 -57 -10 -75 -27 -87 -57 -40
-69 -59 -69 -103 0 -61 33 -97 90 -97 33 0 48 6 71 29 32 32 35 53 17 113
l-12 40 51 46 c28 26 60 61 72 79 l22 32 36 -25 c47 -32 69 -30 104 7 42 45
41 107 -1 142 -25 22 -31 37 -40 94 -14 99 -14 100 30 129 46 30 64 73 54 131
-5 32 -1 47 22 86 28 45 30 47 77 45 40 0 53 4 78 28 38 37 56 95 40 130 -13
29 -11 33 56 108 41 46 43 47 65 32 47 -33 105 -11 128 50 17 44 11 71 -21 98
l-31 26 29 33 c15 19 43 55 60 80 32 46 34 47 84 47 43 0 55 5 80 29 21 22 29
39 29 65 0 34 3 37 73 72 39 20 86 47 104 60 39 29 45 30 68 4 11 -12 31 -20
51 -20 28 0 38 7 60 40 29 44 27 56 -17 111 -16 20 -21 42 -22 94 -2 69 -2 69
28 75 80 17 115 64 115 156 l0 61 48 31 c26 17 56 41 67 53 l20 23 -25 -17
c-44 -30 -100 -58 -100 -49 0 11 36 59 93 122 l48 53 29 -35 c36 -43 73 -58
117 -46 64 17 69 93 9 146 -19 16 -40 32 -48 34 -9 4 -5 12 14 27 15 12 44 47
64 77 l36 54 54 0 c45 0 59 5 89 31 68 60 70 152 5 214 -28 27 -39 30 -98 32
l-66 1 -23 62 c-23 60 -23 63 -7 108 32 90 -4 182 -71 182 -40 0 -61 38 -131
243 -49 144 -51 175 -20 222 14 21 26 49 26 63 0 43 -37 89 -86 108 -30 11
-46 24 -48 38 -27 137 -51 246 -62 266 -11 22 -9 28 17 58 40 45 39 84 -4 127
-20 20 -48 36 -72 41 -33 6 -40 4 -56 -17 -40 -52 -10 -156 49 -171 38 -10 41
-14 43 -64 2 -21 13 -67 26 -102 35 -94 45 -149 33 -172 -17 -32 -38 -24 -106
42 -65 62 -74 84 -55 133 5 13 2 30 -11 50 -23 38 -23 37 10 76 l27 33 -36
-27 c-68 -51 -69 -49 -69 151 0 97 -3 187 -6 200 -13 47 17 19 51 -48 19 -38
40 -70 45 -70 15 0 13 5 -36 103 l-46 90 43 37 c40 35 43 40 43 90 0 50 -3 55
-43 92 l-44 38 7 63 c4 34 15 105 26 157 10 52 21 111 24 131 6 32 11 38 41
43 42 8 75 51 82 106 5 32 0 48 -20 79 l-26 40 34 75 34 76 44 0 c54 0 75 20
83 81 5 39 3 49 -21 77 -15 18 -33 32 -41 32 -12 0 -14 24 -8 153 3 83 8 159
10 167 6 17 26 -11 91 -128 43 -79 45 -86 34 -122 -26 -87 -8 -156 46 -174 45
-15 51 -23 73 -101 l20 -69 -25 -26 c-47 -49 -24 -176 35 -195 13 -4 38 2 66
15 l45 22 22 -20 c12 -11 36 -28 52 -36 29 -15 30 -18 30 -88 1 -40 4 -83 8
-95 9 -23 53 -43 100 -43 39 0 154 -56 161 -78 2 -9 8 -33 11 -52 15 -75 56
-98 129 -70 21 8 41 1 126 -41 98 -50 100 -52 113 -97 20 -67 49 -82 116 -60
69 22 88 6 131 -109 31 -84 105 -101 140 -32 18 34 24 39 43 33 12 -4 50 -8
85 -9 59 -1 64 -3 78 -31 22 -44 52 -64 95 -64 47 0 79 28 79 69 0 69 -42 97
-129 86 -59 -8 -212 -7 -221 1 -8 8 16 38 39 50 21 11 20 13 -26 43 -36 24
-54 31 -73 26 -14 -4 -52 -9 -85 -12 l-60 -6 35 -12 c40 -13 50 -43 25 -69
-23 -23 -29 -21 -60 20 -22 29 -26 40 -18 53 8 12 6 30 -4 61 -27 81 -49 91
-139 69 -42 -11 -47 -10 -72 13 -15 14 -47 39 -72 55 -55 38 -85 70 -95 103
-12 40 -25 50 -64 50 -20 0 -51 9 -69 20 -53 33 -126 112 -137 149 -13 46 -50
71 -117 80 -79 11 -154 71 -177 143 -7 21 -27 48 -46 62 -27 21 -39 41 -55 95
-24 82 -25 97 -4 109 10 5 18 27 21 53 6 61 -20 108 -75 134 -23 12 -49 31
-57 43 -31 44 -95 177 -95 198 0 12 13 48 30 80 l29 59 153 27 c84 15 248 41
363 57 116 17 231 37 256 45 54 16 81 8 59 -19 -7 -9 -48 -39 -89 -67 -151
-101 -257 -178 -316 -227 -53 -46 -64 -51 -108 -51 -38 0 -53 -5 -72 -25 -33
-32 -33 -78 0 -110 31 -32 69 -32 112 1 l34 25 162 -15 c235 -24 257 -27 257
-41 0 -7 -8 -16 -17 -19 -30 -12 -210 -118 -295 -174 l-80 -54 -23 22 c-19 18
-31 21 -59 16 -54 -10 -81 -37 -72 -71 9 -37 68 -95 96 -95 12 0 34 7 50 16
26 16 35 15 166 -14 77 -18 194 -43 261 -56 173 -36 253 -58 253 -72 0 -23 59
-72 95 -78 57 -11 101 9 127 57 l23 42 240 61 c132 33 264 68 294 77 l54 16
44 -42 c59 -56 80 -66 136 -67 111 0 197 88 197 204 l0 41 127 70 c69 39 162
94 206 123 44 28 84 52 88 52 3 0 27 -12 53 -26 54 -30 80 -27 120 13 25 24
27 33 25 95 -2 63 0 72 28 106 30 36 33 37 86 34 48 -3 57 -1 71 19 19 27 21
81 4 108 -10 17 -5 27 39 78 28 32 76 96 108 143 92 136 87 131 133 124 23 -4
48 -1 61 6 54 28 78 123 46 184 -8 15 -15 39 -15 53 0 13 28 97 61 186 34 89
75 198 92 242 36 96 42 105 74 105 39 0 94 31 114 64 36 59 19 150 -36 190
-18 13 -18 19 9 197 15 101 34 234 41 294 8 61 14 111 15 112 0 1 12 3 27 5
18 2 35 15 51 38 31 46 24 91 -19 136 -32 33 -32 34 -21 86 7 29 15 80 18 114
l6 61 43 11 c161 43 142 294 -24 310 -69 6 -94 -2 -135 -44 -27 -28 -37 -48
-42 -86 -8 -60 -20 -69 -134 -98 -206 -52 -573 -168 -653 -206 l-37 -18 -33
32 c-59 58 -132 30 -164 -63 -13 -40 -19 -46 -56 -55 -73 -19 -80 -22 -195
-76 -63 -30 -115 -54 -117 -54 -1 0 -39 -20 -84 -45 l-81 -45 -47 30 c-74 47
-153 39 -210 -22 -16 -17 -23 -38 -25 -83 l-3 -60 -60 -30 c-34 -16 -106 -56
-162 -87 -55 -32 -106 -58 -111 -58 -6 0 -27 9 -46 21 -70 41 -138 -3 -142
-93 -2 -28 -6 -54 -11 -58 -4 -3 -79 -60 -167 -125 l-158 -118 -28 17 c-57 33
-153 10 -166 -40 -7 -26 -1 -86 11 -115 4 -12 -15 -37 -67 -89 -61 -60 -76
-71 -98 -66 -15 2 -30 6 -36 7 -56 10 -114 -32 -114 -85 0 -17 5 -47 10 -68
10 -33 8 -38 -18 -65 -16 -15 -31 -34 -33 -42 -4 -10 -14 -10 -56 4 -62 20
-110 9 -144 -33 -19 -24 -20 -35 -15 -97 l6 -70 -101 -100 c-95 -94 -225 -241
-260 -294 -14 -23 -17 -23 -40 -8 -67 43 -138 32 -195 -29 l-40 -44 -96 36
c-74 29 -98 42 -102 59 -3 12 -17 34 -31 50 -23 24 -32 27 -67 22 -23 -3 -54
-15 -69 -26 -16 -12 -34 -21 -41 -21 -18 1 -108 68 -108 81 0 5 14 23 32 39
l31 29 -44 3 c-44 3 -44 3 -47 43 -2 35 3 48 45 100 46 56 52 60 96 63 43 3
50 7 74 43 14 21 28 39 30 39 3 0 33 -13 67 -30 55 -26 64 -34 74 -69 15 -50
52 -75 98 -67 62 12 88 72 63 144 -10 28 -7 36 18 74 16 24 35 58 42 76 8 18
33 46 56 62 47 32 71 77 61 114 -3 14 -22 41 -42 60 l-36 35 8 73 c9 71 10 73
46 90 106 50 87 158 -32 178 -33 5 -36 9 -58 75 -17 54 -20 75 -12 93 17 39
12 79 -12 96 -31 22 -68 20 -94 -5 -19 -18 -21 -25 -12 -52 9 -26 8 -37 -12
-74 -42 -79 -110 -62 -110 27 0 42 18 67 55 76 19 5 25 14 30 53 7 54 -5 93
-37 115 -33 23 -44 20 -91 -23 l-43 -40 -123 -10 c-67 -6 -128 -8 -134 -4 -7
4 -22 19 -35 34 -12 15 -39 33 -60 40 -51 16 -62 27 -62 60 0 20 10 35 35 55
27 20 35 34 35 59 0 46 -26 65 -88 65 -40 0 -67 8 -118 35 -36 19 -71 35 -77
35 -7 0 -20 14 -29 30 -14 25 -23 30 -56 30 -31 0 -41 -5 -49 -23 -9 -19 -17
-23 -44 -20 -48 5 -57 -5 -65 -70 l-7 -57 28 0 c48 0 154 -94 131 -117 -2 -3
-31 3 -63 13 -40 12 -69 29 -93 55 -20 21 -49 43 -64 49 -25 9 -32 7 -52 -11
-28 -26 -48 -81 -39 -108 3 -10 19 -24 35 -31 41 -17 50 -31 56 -86 5 -44 3
-52 -20 -73 -60 -56 -6 -135 107 -156 20 -4 40 -11 43 -16 13 -22 22 -6 17 30
-6 46 -16 41 127 62 117 17 185 17 185 1 0 -7 -27 -47 -60 -88 l-60 -75 -48 5
c-42 5 -52 2 -73 -19 -19 -19 -24 -35 -24 -74 0 -68 35 -111 90 -111 37 0 40
-3 74 -65 39 -72 43 -92 22 -120 -12 -17 -14 -17 -37 -2 -30 21 -93 22 -113 1
-20 -20 -20 -27 3 -55 16 -20 29 -24 75 -25 53 -1 57 -2 86 -42 16 -23 41 -44
54 -48 27 -7 32 -19 42 -121 6 -71 6 -72 -20 -84 -14 -7 -28 -21 -32 -31 -6
-19 13 -78 25 -78 21 -1 54 -42 62 -78 9 -42 8 -43 -32 -82 -41 -39 -41 -39
-34 -95 3 -30 3 -55 -2 -55 -4 0 -46 -29 -93 -64 l-85 -64 -36 29 c-30 24 -47
29 -88 29 -29 0 -65 -7 -81 -15 -28 -14 -28 -14 -87 48 -32 34 -76 85 -98 112
-22 28 -65 77 -96 110 -115 121 -114 120 -114 207 0 67 -3 80 -23 100 -24 24
-85 30 -148 14 -28 -7 -32 -4 -57 32 -24 37 -26 46 -20 107 6 63 5 67 -23 96
-27 28 -33 30 -95 27 l-66 -2 -59 64 c-33 35 -57 71 -55 79 2 9 5 41 8 71 4
51 2 57 -25 83 -35 34 -78 38 -126 12 l-33 -18 -55 44 c-30 24 -103 79 -162
122 l-107 77 7 50 c6 46 4 51 -24 80 -38 37 -71 39 -129 5 -23 -14 -43 -21
-43 -15 0 5 -81 50 -180 100 l-180 90 0 48 c0 84 -64 152 -143 152 -37 0 -97
-26 -97 -42 0 -16 -40 -7 -113 27 -42 20 -103 44 -134 55 -32 11 -110 37 -173
60 -63 22 -122 40 -131 40 -12 0 -18 13 -21 50 -6 59 -27 86 -78 101 -45 14
-100 -6 -125 -45 -15 -22 -15 -32 -5 -75 15 -64 38 -83 104 -89 48 -4 56 -2
79 23 l25 28 29 -21 c15 -11 51 -27 78 -35 28 -8 84 -29 125 -45 41 -17 124
-49 183 -72 102 -40 108 -43 105 -68 -4 -34 -19 -37 -263 -57 -358 -29 -420
-35 -462 -41 l-42 -6 -27 55 c-30 65 -50 80 -134 104 -59 16 -64 16 -116 -2
l-55 -19 -111 120 c-61 65 -166 173 -234 240 -68 66 -124 128 -124 137 0 41
28 35 437 -94 155 -49 299 -89 320 -89 37 1 37 1 -31 30 -38 17 -141 53 -230
81 -434 137 -466 149 -472 177 -11 55 -44 113 -76 132 -40 24 -110 26 -155 4z
m9287 -238 c0 -18 -45 -71 -168 -198 -192 -197 -268 -280 -274 -299 -3 -10
-11 -8 -33 9 -39 31 -122 30 -193 -3 l-52 -24 -49 73 c-71 105 -84 172 -41
211 30 27 238 98 485 166 77 21 176 49 220 62 102 32 105 32 105 3z m-8873
-293 c125 -129 230 -239 232 -245 2 -5 -6 -20 -18 -32 -33 -35 -43 -83 -30
-143 5 -29 15 -55 20 -58 24 -15 -2 -51 -139 -193 -154 -160 -177 -174 -206
-129 -7 12 -22 74 -31 137 -9 63 -30 178 -46 255 -33 162 -35 192 -13 217 10
10 19 40 22 68 4 48 3 51 -36 87 -40 38 -41 39 -53 142 -12 102 -12 104 9 122
12 9 31 15 41 12 11 -3 122 -111 248 -240z m8975 219 c4 -4 -2 -58 -14 -120
-21 -111 -21 -112 -57 -129 -61 -30 -67 -91 -15 -153 l27 -31 -22 -157 c-24
-166 -59 -386 -67 -413 -2 -9 -23 -22 -46 -28 -36 -11 -43 -11 -58 6 -9 10
-74 80 -145 156 l-127 137 21 50 c27 62 27 129 1 180 -11 22 -20 42 -20 46 0
4 82 91 183 193 100 102 202 208 226 234 39 44 47 48 75 43 17 -4 34 -10 38
-14z m-1099 -257 c20 -8 57 -15 82 -15 l46 0 59 -92 c54 -85 58 -94 46 -117
-7 -14 -16 -39 -20 -54 -6 -25 -10 -28 -34 -23 -42 9 -221 25 -400 36 -195 12
-344 37 -340 58 2 8 46 33 98 56 52 24 136 62 185 86 96 46 186 79 221 79 12
1 38 -6 57 -14z m-3926 -136 c49 -30 58 -77 21 -116 -27 -29 -54 -29 -69 0
-17 29 -39 128 -33 139 7 11 39 1 81 -23z m-96 -53 c18 -82 10 -87 -49 -32
-29 27 -52 52 -52 56 0 7 51 24 82 29 4 1 12 -23 19 -53z m-2481 -128 c11 -18
19 -40 17 -49 -5 -19 -217 -341 -232 -351 -5 -4 -24 -8 -41 -8 -18 0 -38 -8
-49 -20 -24 -26 -34 -25 -81 8 -21 16 -115 83 -209 149 -212 150 -212 151
-194 200 9 24 23 39 39 43 40 12 212 30 385 41 88 5 165 12 170 14 6 2 47 4
93 4 l82 1 20 -32z m2356 -4 c56 -27 53 -57 -10 -103 -40 -29 -51 -33 -67 -23
-10 7 -25 12 -32 12 -9 0 -14 20 -15 71 l-3 72 44 -5 c25 -3 62 -14 83 -24z
m352 -10 c2 -25 -3 -37 -24 -53 -36 -28 -58 -27 -83 5 -26 33 -26 39 0 65 15
15 30 19 62 17 39 -3 42 -5 45 -34z m3567 26 c157 -10 344 -27 407 -36 31 -5
39 -11 53 -46 l16 -41 -48 -49 c-26 -27 -99 -95 -162 -151 -63 -56 -185 -170
-270 -252 -86 -83 -176 -164 -201 -180 -25 -17 -51 -36 -59 -44 -10 -9 -32
-12 -68 -9 -51 4 -55 3 -69 -23 -8 -15 -14 -46 -14 -69 0 -34 -4 -42 -26 -50
-63 -24 -386 -223 -440 -272 -24 -22 -50 -23 -57 -4 -8 20 -66 49 -87 43 -10
-2 -22 -2 -27 2 -5 3 -36 57 -67 120 -42 82 -56 121 -53 140 16 78 25 112 30
117 5 5 110 46 245 94 30 11 92 36 138 56 l84 36 34 -21 c21 -13 50 -21 79
-21 44 0 47 -2 97 -65 28 -36 56 -65 62 -65 6 0 3 10 -6 23 -48 64 -76 113
-76 129 0 30 27 85 47 97 17 10 17 10 0 11 -10 0 -43 17 -73 38 l-56 39 -49
-23 c-40 -20 -50 -30 -60 -64 -7 -22 -17 -44 -23 -49 -14 -12 -287 -124 -391
-161 -121 -43 -125 -30 -22 79 167 179 271 295 391 439 84 99 134 152 147 152
11 0 27 -13 38 -31 12 -20 20 -26 24 -17 3 8 28 19 56 26 51 12 103 54 116 95
5 14 20 17 98 17 51 0 160 -5 242 -10z m-5931 -59 c39 -21 116 -62 171 -91
110 -58 125 -71 125 -110 0 -28 -56 -83 -167 -163 -28 -21 -53 -43 -55 -49 -7
-19 -98 20 -108 46 -8 20 -9 20 -8 -4 1 -14 -9 -42 -22 -63 -20 -33 -27 -38
-49 -33 -14 4 -104 9 -199 13 -169 6 -173 7 -192 31 -11 13 -20 31 -20 39 0
11 202 325 226 352 2 2 32 -1 66 -7 72 -12 98 -2 126 49 10 16 21 29 26 29 5
0 41 -17 80 -39z m5326 12 c0 -19 -48 -78 -165 -203 -171 -184 -354 -388 -386
-430 -15 -19 -29 -33 -32 -30 -3 3 8 43 25 90 17 47 44 124 60 171 29 86 30
87 67 93 51 8 73 35 79 97 l5 51 101 48 c55 27 128 64 161 84 59 34 85 43 85
29z m-3074 -79 c32 -25 43 -48 27 -57 -5 -3 -32 -8 -60 -12 -45 -6 -53 -4 -53
9 0 14 40 86 48 86 2 0 19 -12 38 -26z m-134 -22 c43 -39 33 -56 -40 -71 -66
-13 -92 -8 -92 19 0 19 66 79 87 80 7 0 27 -13 45 -28z m-3149 -114 c68 -51
169 -124 224 -163 l101 -70 6 -49 c3 -29 14 -58 25 -70 l20 -22 -102 -204
-102 -205 -40 0 -40 0 -68 190 c-37 105 -83 233 -102 285 -18 52 -50 140 -70
195 -51 139 -51 140 -24 174 13 16 30 30 37 30 7 1 68 -41 135 -91z m3842 46
c37 -44 38 -47 31 -106 -3 -33 -8 -64 -12 -69 -15 -24 -64 -5 -171 68 -99 67
-113 80 -113 105 0 30 10 35 90 41 137 10 134 11 175 -39z m3655 24 c23 -13
40 -31 40 -41 0 -9 -18 -59 -39 -110 -22 -50 -56 -144 -76 -207 -21 -63 -52
-158 -70 -210 -18 -52 -72 -216 -120 -365 -48 -148 -93 -280 -101 -292 -18
-29 -83 -32 -106 -5 -33 37 -129 188 -173 270 -25 48 -59 105 -75 127 -24 34
-29 51 -33 122 -2 45 -1 86 2 90 3 5 40 37 81 72 41 35 120 105 175 156 55 50
170 155 255 232 85 77 164 150 174 162 23 26 19 26 66 -1z m318 -81 c40 -43
104 -117 144 -164 69 -83 71 -86 60 -117 -18 -50 -14 -90 14 -131 l25 -38 -37
-96 c-43 -111 -136 -336 -164 -398 -32 -70 -57 -52 -85 60 -18 73 -18 77 -1
116 22 48 17 75 -22 119 l-29 32 -7 208 c-4 114 -14 243 -22 287 -8 44 -17 94
-20 111 -5 23 0 37 21 63 15 17 33 31 39 29 7 -2 44 -38 84 -81z m-8187 47
c32 -20 40 -30 36 -47 -20 -83 -77 -505 -77 -568 0 -43 -3 -51 -26 -61 -28
-13 -54 -55 -54 -87 0 -11 7 -36 17 -55 15 -33 15 -38 -5 -101 -12 -36 -22
-72 -22 -81 0 -26 -20 -54 -35 -48 -8 3 -19 22 -26 42 -6 21 -46 120 -89 222
-43 102 -88 209 -99 238 l-21 54 30 34 c34 39 39 83 16 139 l-15 34 52 48 c29
26 97 96 151 156 55 59 106 107 113 107 7 0 32 -12 54 -26z m8001 -33 c32 -30
67 -311 68 -538 0 -95 -1 -103 -19 -103 -29 0 -70 -41 -77 -75 -7 -40 30 -96
75 -111 38 -12 54 -35 77 -112 l16 -53 -36 -39 c-20 -22 -36 -48 -36 -59 0
-28 -13 -34 -160 -81 -74 -23 -166 -58 -204 -77 -54 -27 -71 -32 -77 -21 -5 7
-9 15 -9 18 0 9 -49 58 -67 68 -15 9 -11 24 35 153 28 79 90 266 137 414 47
149 104 322 126 385 42 118 78 225 85 248 5 16 42 7 66 -17z m-7876 11 c12 -9
48 -90 84 -197 69 -198 121 -340 174 -471 31 -77 56 -143 56 -146 0 -4 -18
-21 -40 -38 -29 -23 -44 -29 -53 -22 -17 14 -128 60 -212 87 -68 22 -70 24
-76 61 -6 35 -19 52 -62 79 -14 9 -14 24 4 155 22 169 75 476 84 490 7 12 26
13 41 2z m3652 -64 c16 -16 15 -60 -2 -177 -8 -53 -18 -122 -21 -154 -12 -105
-53 -115 -109 -25 -36 59 -38 63 -26 101 7 24 9 59 5 89 l-7 50 63 64 c66 66
77 72 97 52z m261 -52 c63 -36 118 -71 122 -78 5 -7 9 -34 9 -60 0 -54 10 -45
-203 -179 -74 -47 -134 -79 -142 -75 -18 6 -38 53 -29 67 4 7 44 295 44 321 0
15 53 68 68 68 10 0 68 -29 131 -64z m-2285 18 c55 -31 56 -33 86 -152 l24
-93 -36 -35 -35 -36 -69 30 c-38 16 -80 33 -94 37 -90 26 -140 63 -140 104 0
4 35 33 78 63 42 31 88 68 101 82 14 14 28 26 31 26 4 0 28 -12 54 -26z m2730
-3 c15 -15 34 -50 42 -76 12 -43 12 -51 -1 -72 -9 -14 -25 -23 -41 -23 -41 0
-100 36 -114 69 -12 29 -10 34 26 81 21 27 43 50 49 50 6 0 24 -13 39 -29z
m1744 -1 c2 -12 -6 -55 -18 -94 -60 -195 -83 -262 -91 -272 -5 -6 -34 -14 -65
-17 -67 -7 -81 -17 -89 -67 -4 -21 -14 -45 -23 -53 -9 -8 -62 -29 -117 -45
-55 -17 -133 -42 -174 -56 -41 -14 -77 -24 -79 -21 -3 2 -7 27 -10 54 l-4 49
70 73 69 73 39 -12 c34 -10 43 -9 82 13 25 14 50 25 58 25 10 0 11 7 3 29 -6
16 -9 44 -7 62 3 29 17 43 133 126 72 52 146 110 165 129 38 38 53 39 58 4z
m-4287 -30 c35 -28 80 -63 99 -79 19 -15 61 -45 93 -66 46 -31 57 -43 57 -65
0 -26 -4 -28 -92 -49 -111 -25 -108 -25 -108 -6 0 9 -11 27 -26 41 -18 19 -31
24 -49 20 -22 -6 -26 -2 -39 46 -23 83 -39 176 -33 193 10 25 30 18 98 -35z
m-687 -162 c68 -10 68 -10 88 -54 l19 -44 -53 -89 c-47 -78 -59 -91 -106 -114
-49 -24 -53 -25 -62 -7 -5 10 -66 68 -135 130 l-125 111 20 39 c20 38 21 39
82 43 81 4 185 -1 272 -15z m3214 -24 c12 -8 30 -31 40 -50 16 -34 16 -36 -3
-46 -11 -6 -44 -35 -73 -65 l-53 -53 -13 32 c-8 18 -20 62 -27 97 l-12 64 28
24 c30 26 68 25 113 -3z m-2823 -62 c174 -62 185 -83 60 -117 -102 -29 -269
-89 -316 -115 -49 -27 -74 -25 -98 6 l-21 27 26 46 c15 25 36 63 48 83 19 35
25 38 64 38 56 0 77 12 91 51 8 24 15 30 28 24 10 -4 63 -23 118 -43z m2573
14 c3 -27 -4 -55 -81 -290 -36 -111 -46 -132 -72 -148 -65 -40 -73 -38 -148
43 l-68 74 4 65 c6 73 -1 65 127 141 47 28 114 73 150 100 36 26 70 47 75 45
6 -1 11 -15 13 -30z m77 -18 c3 -13 10 -48 14 -78 9 -54 9 -56 -25 -90 -30
-31 -34 -42 -34 -88 0 -53 20 -84 60 -97 17 -5 43 -81 56 -162 5 -35 3 -42
-21 -61 -15 -12 -34 -22 -42 -22 -23 0 -101 49 -128 82 -36 42 -39 67 -16 118
11 25 21 58 21 73 0 62 37 210 79 320 13 33 29 35 36 5z m-3411 -14 c9 -9 28
-31 42 -50 14 -18 64 -66 110 -105 48 -41 87 -82 90 -96 10 -40 -10 -70 -52
-77 -51 -10 -315 -100 -383 -132 l-56 -25 -33 36 -33 36 27 47 c32 53 39 69
119 244 57 126 58 127 94 131 20 2 41 4 48 5 6 1 19 -5 27 -14z m1325 -30 c29
-34 86 -57 121 -49 24 5 34 -2 83 -55 54 -58 72 -100 48 -115 -5 -3 -36 6 -68
21 -61 27 -304 131 -360 153 -54 22 -41 38 40 51 39 6 77 13 82 15 22 8 32 4
54 -21z m2297 -183 c-51 -52 -53 -101 -6 -151 l30 -32 -29 -41 c-15 -23 -36
-57 -45 -75 -29 -57 -47 -39 -69 71 l-19 97 32 37 c31 34 32 39 26 93 -6 53
-5 59 24 96 17 21 44 49 58 61 l27 21 3 -70 c3 -70 2 -72 -32 -107z m-2349 55
c82 -35 179 -78 217 -97 97 -46 112 -90 44 -125 -59 -30 -243 -156 -257 -176
-13 -19 -14 -19 -35 1 -12 11 -36 25 -52 31 -27 9 -34 21 -57 88 -33 97 -77
261 -77 286 0 25 28 56 51 56 10 0 85 -29 166 -64z m-316 38 c19 -8 40 -19 48
-22 7 -4 37 -86 66 -182 28 -96 53 -179 55 -185 4 -10 -61 -85 -74 -85 -4 0
-22 11 -39 24 -18 13 -122 65 -232 116 -110 50 -209 97 -220 104 -11 7 -41 21
-67 31 -62 23 -64 47 -5 68 23 9 123 45 222 81 99 36 187 65 196 66 9 0 31 -7
50 -16z m4144 -159 l27 -45 -49 -107 c-56 -123 -63 -139 -133 -321 -51 -130
-73 -161 -105 -148 -7 2 -21 -4 -31 -15 -26 -29 -41 -24 -98 34 -28 28 -98 94
-155 146 -56 52 -107 105 -112 119 -5 13 -6 53 -3 88 5 49 13 70 35 96 23 27
30 30 38 18 6 -8 29 -16 55 -17 40 -3 50 1 84 31 38 34 144 77 317 127 39 11
74 25 80 30 16 16 23 10 50 -36z m209 -157 c31 -58 56 -112 56 -119 0 -7 -8
-21 -17 -32 -10 -10 -20 -42 -23 -70 l-5 -52 -140 -93 c-77 -50 -154 -103
-172 -117 -40 -32 -60 -32 -75 0 -10 22 -6 39 27 123 21 53 53 131 72 173 18
42 40 94 47 115 8 22 28 70 44 109 27 64 32 71 68 81 29 9 42 9 51 0 7 -6 37
-59 67 -118z m814 78 c15 3 40 10 56 15 34 11 41 4 50 -50 3 -22 22 -56 47
-86 22 -28 83 -114 134 -191 l93 -142 -20 -20 c-11 -11 -29 -44 -38 -73 l-19
-54 -168 -5 c-92 -3 -173 -2 -179 3 -7 4 -14 20 -17 35 -10 50 -31 67 -81 67
-33 0 -51 -6 -67 -21 -23 -23 -36 -95 -25 -138 6 -23 12 -26 49 -26 26 0 63
10 90 24 41 20 66 24 215 30 92 4 176 4 185 0 17 -6 57 -72 57 -93 0 -5 -51
-85 -113 -178 -62 -92 -146 -225 -186 -294 l-72 -127 -46 14 c-26 8 -63 14
-83 14 -34 0 -38 3 -49 40 -15 51 -260 541 -318 638 -92 152 -116 232 -70 232
12 0 87 -21 167 -45 229 -71 235 -57 9 21 -163 57 -179 66 -179 109 0 34 10
42 275 210 28 17 80 51 117 74 37 24 72 49 79 57 10 12 17 9 46 -16 26 -23 40
-29 61 -24z m-3121 -39 l72 -72 -14 -32 c-14 -32 -16 -33 -75 -33 -72 0 -76 5
-86 130 -6 74 -6 80 12 80 10 0 51 -33 91 -73z m-2353 -38 c105 -51 218 -103
251 -116 97 -40 152 -71 159 -88 3 -9 6 -31 6 -49 0 -30 -13 -44 -152 -159
-84 -70 -161 -127 -170 -127 -10 0 -35 7 -56 15 -46 19 -76 67 -202 327 -94
193 -103 228 -70 263 13 14 28 25 33 25 5 0 96 -41 201 -91z m-384 56 c18 -19
34 -25 64 -25 l41 0 23 -74 c32 -103 183 -405 225 -449 l34 -36 -34 -33 c-47
-45 -46 -93 2 -147 l36 -39 -50 -64 c-58 -72 -232 -341 -251 -388 -13 -31 -14
-31 -65 -25 -28 4 -68 2 -89 -3 l-37 -11 -48 97 c-27 53 -90 187 -141 297 -50
110 -113 245 -140 300 -122 256 -125 265 -109 294 21 37 48 37 110 0 82 -48
255 -136 337 -170 l72 -31 0 -44 c0 -36 5 -50 26 -69 43 -40 105 -37 148 5 34
33 31 62 -11 104 -24 25 -33 27 -92 25 -63 -3 -71 0 -151 46 -47 26 -150 82
-230 123 -80 41 -151 79 -158 85 -8 7 -12 28 -10 59 l3 48 215 75 c118 40 224
74 236 74 11 1 31 -10 44 -24z m1341 -12 c25 -30 72 -43 114 -32 27 8 45 7 66
-1 45 -19 54 -37 54 -109 1 -79 15 -108 61 -127 29 -12 42 -12 76 -2 34 10 42
10 46 -1 3 -8 83 -100 179 -205 96 -105 177 -197 180 -204 8 -20 -18 -72 -36
-72 -9 0 -30 8 -46 18 -17 10 -57 29 -90 41 -102 38 -143 67 -170 121 -31 61
-65 81 -114 68 -19 -6 -45 -17 -58 -25 -21 -14 -25 -14 -41 -1 -17 16 -158 82
-247 116 -94 37 -280 128 -293 145 -28 34 -11 69 58 119 134 98 235 168 241
168 4 0 13 -7 20 -17z m-2368 -25 c34 -17 100 -46 147 -62 88 -32 98 -43 86
-90 -6 -25 -89 -60 -280 -121 -74 -24 -91 -26 -94 -14 -3 8 -22 31 -43 52
l-38 38 16 72 c18 84 24 94 63 102 16 4 40 17 52 31 13 13 24 24 26 24 1 0 31
-14 65 -32z m3837 -179 c15 -36 8 -52 -51 -122 -62 -72 -89 -62 -89 33 0 84
28 118 96 119 26 1 34 -4 44 -30z m-3580 -49 c10 -5 28 -23 39 -39 20 -28 21
-31 5 -92 -9 -35 -33 -154 -53 -266 -21 -112 -41 -206 -45 -210 -4 -5 -17 4
-28 19 -11 16 -36 32 -59 38 -34 9 -50 26 -127 128 -103 137 -152 213 -152
234 0 8 5 29 11 45 9 28 20 34 107 62 53 17 131 44 172 60 82 33 102 36 130
21z m4990 -73 c41 -40 114 -105 162 -145 48 -40 92 -81 98 -92 17 -31 -11 -87
-47 -93 -36 -7 -258 -42 -393 -62 -58 -8 -168 -26 -245 -40 -77 -14 -145 -23
-151 -21 -7 3 -19 25 -27 50 l-16 46 52 59 c29 31 108 117 177 189 69 73 129
141 134 152 8 18 15 20 71 14 39 -4 69 -2 81 4 11 6 21 12 24 12 3 0 39 -33
80 -73z m-4817 -9 c9 -7 71 -130 137 -273 67 -143 166 -353 221 -466 54 -114
99 -215 99 -225 0 -11 -10 -32 -23 -47 l-23 -29 -99 60 c-55 33 -149 89 -210
124 -109 64 -110 65 -116 108 -8 61 -48 94 -103 87 -23 -2 -48 -6 -56 -8 -20
-5 -25 116 -10 215 18 119 81 389 97 421 24 47 53 57 86 33z m1765 -52 c149
-69 285 -127 345 -146 44 -14 57 -34 57 -88 0 -36 -5 -43 -77 -105 -43 -36
-118 -103 -168 -147 -83 -74 -93 -80 -124 -76 -19 3 -40 11 -47 18 -15 15 -69
161 -124 334 -65 204 -64 200 -40 239 12 19 26 35 31 35 6 0 72 -29 147 -64z
m-334 19 c13 -9 43 -19 66 -23 l43 -7 17 -70 c21 -88 72 -251 118 -378 l36
-98 -31 -31 -31 -30 -58 39 c-33 22 -140 84 -239 137 -99 53 -190 104 -202
114 -12 9 -26 36 -31 59 l-10 42 107 89 c58 50 124 109 146 131 21 23 41 41
42 41 2 0 14 -7 27 -15z m4274 -5 c12 -12 22 -26 22 -33 0 -38 -43 -428 -51
-458 -6 -23 -18 -40 -34 -47 -23 -11 -34 -5 -133 68 -59 44 -126 97 -149 118
-39 35 -43 43 -43 86 0 57 -3 54 165 168 66 44 131 89 144 99 31 24 52 24 79
-1z m1842 -62 c0 -9 -29 -58 -65 -110 -36 -51 -86 -123 -112 -160 -45 -66 -47
-68 -89 -68 -51 0 -68 -19 -78 -88 -7 -44 -63 -142 -82 -142 -23 0 -43 40 -84
168 l-43 133 30 32 c30 33 50 73 55 115 2 20 18 30 88 58 47 19 132 48 190 65
58 17 116 37 130 44 22 12 27 11 42 -8 10 -12 18 -29 18 -39z m-1722 14 c11
-15 61 -106 110 -202 50 -96 108 -209 130 -250 22 -41 75 -148 117 -238 l78
-162 -51 -49 c-30 -29 -53 -44 -55 -37 -8 19 -182 157 -285 225 -81 54 -91 64
-82 81 26 49 0 115 -60 151 -25 16 -31 25 -26 42 3 12 17 117 32 232 14 116
27 216 30 223 6 22 42 13 62 -16z m-2394 -182 c61 -34 81 -55 90 -92 5 -21 2
-30 -13 -38 -34 -18 -53 -11 -98 35 -43 45 -60 83 -49 110 7 20 11 20 70 -15z
m-221 -1 c12 -7 25 -17 29 -23 4 -6 8 -73 8 -148 0 -149 -3 -157 -51 -119 -13
10 -51 32 -84 49 -69 35 -90 55 -99 97 -8 35 3 48 98 114 65 45 68 46 99 30z
m163 -126 c30 -70 47 -78 99 -43 37 25 96 26 124 3 16 -14 23 -41 36 -132 8
-62 18 -123 21 -135 3 -15 -4 -30 -25 -50 l-29 -28 -35 26 c-18 14 -37 26 -41
26 -11 0 -190 103 -212 122 -20 18 -22 30 -23 156 -1 150 9 182 41 140 9 -13
29 -51 44 -85z m-932 42 c28 -14 93 -42 145 -63 l95 -37 11 -53 c7 -29 20 -60
29 -70 23 -26 20 -43 -15 -98 -17 -27 -50 -83 -75 -124 -25 -41 -69 -113 -99
-159 -30 -46 -56 -88 -58 -94 -1 -5 -27 -13 -56 -18 -30 -4 -62 -16 -73 -26
-13 -12 -23 -14 -33 -8 -7 6 -39 30 -72 53 -57 43 -162 111 -295 192 -69 42
-80 60 -55 92 10 13 48 17 234 21 208 5 224 4 247 -14 36 -28 100 -25 131 6
33 32 31 48 -6 79 -51 43 -116 32 -134 -24 -6 -19 -15 -20 -225 -20 -120 0
-226 3 -235 6 -17 7 -45 54 -45 76 0 8 23 32 52 53 28 22 101 86 162 142 l109
102 25 -20 c35 -27 90 -25 127 6 38 31 46 31 109 0z m1383 -40 c31 -14 54 -28
51 -31 -3 -2 -39 4 -79 14 -53 14 -75 24 -77 37 -5 22 21 17 105 -20z m1644
-126 c59 -44 110 -87 113 -96 4 -8 0 -27 -6 -41 -10 -21 -33 -34 -113 -63 -55
-20 -123 -48 -151 -62 -50 -25 -52 -26 -69 -7 -48 53 -117 46 -155 -15 -11
-18 -26 -35 -33 -38 -7 -2 -55 2 -107 9 -52 7 -142 18 -199 24 -57 5 -110 15
-117 21 -32 27 -16 54 69 115 91 66 91 65 270 188 l129 87 44 -22 c44 -21 47
-21 89 -5 24 10 49 23 55 31 10 12 17 10 42 -16 17 -16 79 -66 139 -110z
m1498 122 c14 -14 76 -185 84 -235 1 -5 -13 -13 -30 -18 -41 -11 -62 -43 -71
-105 -7 -44 -11 -50 -52 -72 -92 -49 -247 -136 -297 -168 -29 -18 -55 -33 -59
-33 -13 0 -54 43 -54 57 0 13 144 255 214 358 23 34 66 100 96 148 l55 87 48
0 c33 0 53 -6 66 -19z m-5586 -150 c222 -116 257 -137 257 -157 0 -34 -24 -52
-103 -75 -113 -33 -427 -144 -595 -210 l-154 -61 -25 24 c-14 12 -34 36 -45
51 l-20 28 68 112 c60 99 184 291 229 355 10 14 26 22 45 22 19 0 35 8 47 25
10 14 23 24 28 22 6 -1 126 -62 268 -136z m2441 111 c68 -18 70 -19 84 -60 8
-24 11 -53 8 -65 -3 -12 -41 -60 -85 -107 -75 -81 -80 -84 -107 -75 -40 14
-50 42 -65 179 -13 113 -12 119 6 132 25 19 75 17 159 -4z m-711 -119 c47 -27
98 -59 113 -72 24 -21 26 -27 20 -75 -3 -28 -6 -72 -6 -98 0 -35 -6 -54 -20
-68 -41 -41 -59 -29 -152 110 -52 76 -88 140 -88 155 0 26 29 95 41 95 3 0 45
-21 92 -47z m924 -69 l25 -25 -6 -137 c-4 -75 -9 -144 -12 -152 -2 -8 -21 -26
-41 -39 l-36 -23 -20 26 c-11 15 -41 38 -69 52 -51 26 -66 48 -75 115 -5 33 0
42 73 122 88 98 114 108 161 61z m-1229 -51 c2 -23 -1 -81 -6 -129 -9 -75 -13
-89 -36 -108 -14 -11 -36 -41 -49 -66 -22 -43 -27 -46 -107 -73 -46 -15 -85
-25 -88 -22 -5 5 38 81 125 221 28 45 68 114 88 153 44 84 68 92 73 24z m143
20 c14 -16 45 -59 69 -98 25 -38 59 -88 77 -111 69 -86 25 -131 -129 -133 -30
-1 -38 3 -43 22 -11 34 -46 67 -71 67 -30 0 -36 11 -24 46 5 16 14 71 19 123
6 56 16 98 23 103 25 15 54 8 79 -19z m513 -87 l121 -61 0 -38 0 -39 -100 -37
c-55 -21 -107 -41 -116 -45 -13 -6 -21 2 -35 31 -11 21 -30 43 -43 48 -22 9
-23 14 -17 75 3 36 6 84 6 107 l0 42 31 -11 c17 -6 86 -38 153 -72z m2150 -2
c25 -32 27 -40 17 -56 -7 -11 -28 -61 -47 -111 -30 -79 -109 -261 -133 -307
-5 -8 -16 -15 -26 -15 -13 0 -35 37 -82 140 -83 180 -91 207 -68 241 18 27
108 73 208 105 32 10 65 23 75 28 24 15 24 15 56 -25z m267 -106 c164 -118
254 -190 261 -209 4 -11 3 -30 -2 -44 -9 -24 -14 -25 -86 -25 -95 0 -88 -12
14 -25 42 -5 76 -14 75 -20 -2 -13 -71 -34 -288 -85 -99 -24 -205 -51 -235
-62 l-55 -19 -15 23 c-8 13 -29 38 -48 55 l-33 32 37 78 c36 77 84 194 118
284 20 55 39 74 92 93 30 11 43 11 55 2 9 -6 59 -41 110 -78z m-4215 36 l27
-35 -62 -117 c-34 -64 -81 -156 -104 -204 -35 -74 -45 -87 -70 -92 -16 -3 -44
-22 -61 -41 -18 -19 -42 -35 -53 -35 -11 0 -65 16 -119 36 -54 19 -163 55
-241 79 -169 51 -193 64 -193 105 0 25 6 33 33 45 77 34 219 89 297 115 47 15
144 49 215 75 72 25 157 55 190 66 33 10 67 23 75 29 25 16 38 12 66 -26z
m375 -140 c90 -60 191 -122 224 -139 52 -26 60 -33 57 -55 -5 -37 -14 -42
-109 -61 -118 -23 -138 -15 -216 91 -10 14 -4 -1 12 -32 31 -58 39 -102 22
-113 -5 -3 -45 -10 -88 -15 -43 -5 -141 -22 -217 -37 -112 -22 -141 -24 -144
-14 -3 8 -17 27 -32 44 l-28 31 55 111 c30 60 75 147 101 193 44 79 47 82 81
82 20 1 50 7 66 15 17 7 35 12 41 10 6 -2 85 -52 175 -111z m1583 4 c-2 -62
-144 -337 -186 -359 -32 -17 -47 -3 -88 87 -44 95 -48 119 -24 145 9 10 19 33
23 51 6 31 11 34 81 56 41 13 95 32 120 42 63 26 75 22 74 -22z m1474 20 c7
-7 40 -15 74 -18 l61 -5 69 -120 c96 -165 97 -167 60 -209 -16 -19 -32 -40
-34 -47 -4 -11 -19 -9 -74 9 -38 12 -123 34 -189 48 -66 14 -176 37 -244 52
-180 39 -186 61 -39 140 51 28 136 76 188 106 103 60 110 62 128 44z m-1267
-12 c62 -26 117 -74 137 -118 10 -24 29 -52 41 -62 21 -19 21 -19 1 -33 -10
-7 -31 -40 -46 -73 -20 -46 -32 -60 -48 -60 -28 0 -37 16 -96 175 -68 184 -67
204 11 171z m-103 -28 c5 -7 22 -48 36 -91 15 -44 40 -112 56 -153 l29 -75
-26 -49 c-14 -28 -31 -54 -37 -59 -9 -8 -187 -15 -262 -12 -6 1 -19 18 -28 40
l-18 38 88 164 c48 90 94 174 102 187 16 24 44 29 60 10z m-475 -172 c12 -13
39 -58 60 -100 40 -80 40 -83 -1 -144 -15 -22 -125 39 -157 85 -31 47 -31 64
0 131 20 43 28 52 50 52 15 0 36 -11 48 -24z m469 -304 c91 -9 128 -34 128
-88 0 -44 -38 -310 -51 -357 -9 -34 -13 -38 -37 -35 -22 2 -35 18 -75 88 -27
47 -81 135 -120 195 -54 84 -70 118 -70 144 2 61 38 70 225 53z m-247 -133
c14 -17 51 -75 82 -128 30 -53 73 -123 94 -157 33 -52 50 -104 34 -104 -10 0
-93 46 -145 81 -30 20 -78 49 -105 64 -47 26 -50 30 -47 61 2 18 -3 55 -12 80
-20 60 -20 62 4 102 26 42 59 43 95 1z m1403 -98 c37 -26 41 -41 9 -41 -31 0
-111 75 -103 96 6 15 10 14 34 -8 15 -14 42 -35 60 -47z m-1369 -232 c145 -79
166 -97 157 -132 -5 -20 -27 -33 -135 -76 -114 -46 -132 -50 -155 -40 -15 7
-28 22 -31 33 -8 40 -16 266 -10 276 13 21 49 8 174 -61z m-335 -209 c30 -33
36 -48 36 -83 0 -24 -6 -50 -12 -59 -24 -30 -158 -52 -173 -28 -3 5 3 29 13
52 11 24 25 61 32 83 14 44 37 75 55 75 7 0 29 -18 49 -40z m-1837 -6 c6 -18
-43 -33 -127 -40 -123 -10 -100 32 25 47 75 8 97 7 102 -7z m2348 -5 c7 -20
-3 -37 -47 -82 -10 -9 -36 -44 -58 -77 -46 -68 -76 -82 -116 -55 -29 19 -54
71 -54 114 0 27 4 30 88 56 48 15 103 35 122 46 46 24 57 23 65 -2z m89 -50
l26 -20 0 -183 c0 -215 -7 -246 -53 -245 -26 0 -43 12 -90 64 -53 59 -59 69
-68 130 -9 55 -8 70 5 88 8 12 38 56 67 97 69 100 72 102 113 69z m-517 -144
c3 -9 -8 -55 -25 -103 -17 -48 -40 -118 -52 -157 -21 -66 -43 -105 -61 -105
-14 0 -29 36 -49 117 -36 144 -22 199 62 238 61 28 116 33 125 10z m165 -43
c16 -27 16 -31 -6 -78 -28 -61 -81 -131 -155 -206 -96 -98 -101 -79 -31 116
21 61 44 130 50 154 l11 42 57 0 c53 0 59 -2 74 -28z m-427 -112 c4 -6 15 -39
25 -74 10 -36 28 -78 40 -94 l22 -30 -31 -45 c-17 -25 -31 -52 -31 -60 0 -44
-68 -36 -115 13 l-29 30 34 135 c30 125 35 135 56 135 12 0 26 -5 29 -10z
m557 -50 c13 -5 52 -36 87 -68 l64 -58 -12 -36 c-15 -45 -35 -53 -166 -67
-348 -37 -358 -30 -189 135 102 99 109 104 150 104 23 0 53 -4 66 -10z m146
-264 c15 -14 38 -33 51 -43 l23 -19 -20 -138 c-18 -123 -22 -140 -48 -167 -15
-16 -33 -29 -39 -29 -6 0 -42 25 -80 56 -39 31 -106 80 -150 110 -44 29 -106
74 -137 99 -96 75 -79 93 110 111 139 14 241 30 250 39 8 8 12 6 40 -19z m239
-108 c39 -40 72 -82 73 -93 6 -56 0 -63 -84 -119 -47 -31 -91 -56 -99 -56 -27
0 -58 45 -52 76 2 16 12 74 21 129 15 95 32 135 58 135 6 0 44 -33 83 -72z
m-666 -65 c30 -20 68 -48 84 -62 17 -14 83 -61 148 -105 65 -43 121 -84 124
-91 2 -8 0 -22 -6 -32 -8 -16 -30 -21 -138 -32 -70 -7 -136 -15 -145 -17 -13
-4 -25 8 -45 41 -20 32 -36 48 -56 52 -15 3 -30 10 -34 16 -6 11 -42 219 -43
250 0 30 52 21 111 -20z m785 -138 c20 -14 45 -25 55 -25 14 0 24 -19 44 -87
27 -93 38 -121 79 -218 14 -33 26 -75 26 -94 0 -32 -23 -71 -41 -71 -8 0 -270
185 -324 228 -27 22 -30 32 -35 96 l-5 71 61 37 c34 21 69 49 78 63 9 14 18
25 21 25 2 0 21 -11 41 -25z m-426 -224 c5 -11 10 -29 10 -40 0 -27 -144 -177
-194 -203 -46 -24 -35 -33 -111 87 -25 38 -45 77 -45 87 0 34 36 58 88 59 36
0 188 18 234 28 4 0 12 -8 18 -18z m233 -85 c60 -48 172 -126 243 -168 71 -44
97 -69 89 -91 -8 -18 -157 -72 -242 -87 -34 -6 -84 -17 -110 -25 -70 -21 -89
-19 -130 18 l-36 33 21 95 c11 52 23 119 27 150 4 31 10 61 14 67 5 9 65 40
79 42 2 0 22 -15 45 -34z m362 -335 c3 -11 -2 -37 -13 -58 -11 -21 -41 -89
-67 -151 -36 -84 -60 -124 -90 -155 -23 -23 -54 -61 -68 -83 -20 -32 -37 -45
-73 -58 -66 -22 -77 -20 -95 16 -10 21 -26 35 -46 40 -28 7 -34 16 -57 86 -23
71 -30 107 -27 139 1 7 15 19 31 28 26 13 30 21 30 55 0 35 3 40 28 46 77 17
334 86 368 98 54 20 72 19 79 -3z m133 -58 c12 -7 34 -38 49 -67 l26 -54 -21
-27 c-15 -19 -22 -42 -22 -70 0 -41 -1 -43 -47 -60 -27 -10 -76 -29 -111 -42
-55 -22 -66 -23 -92 -11 -34 15 -37 30 -14 84 28 69 115 238 131 256 17 19 62
15 101 -9z m68 -338 c5 -13 -15 -56 -72 -153 -10 -17 -28 -35 -39 -38 -28 -9
-75 -55 -75 -74 0 -8 -40 -55 -89 -104 l-89 -89 -34 27 c-43 32 -56 32 -102 1
l-37 -25 -8 23 c-55 146 -54 143 -39 204 l14 58 70 25 c68 26 70 26 99 8 18
-10 49 -18 76 -18 39 0 49 4 63 25 9 14 19 38 22 55 8 39 20 47 96 70 79 23
137 25 144 5z m-617 -347 c43 -102 45 -113 32 -173 l-13 -57 -41 6 c-23 4
-108 15 -189 25 -205 25 -217 39 -110 124 141 112 149 116 230 117 l73 0 18
-42z m21 -352 c0 -8 -35 -59 -78 -113 -43 -55 -93 -123 -111 -151 l-33 -52
-76 6 c-83 7 -102 19 -102 63 0 14 8 41 18 60 15 30 40 46 182 118 165 83 200
95 200 69z m80 -95 c14 -76 13 -91 -8 -91 -32 0 -62 -29 -62 -61 0 -29 -6 -33
-95 -75 -52 -24 -97 -44 -100 -44 -17 0 4 38 73 131 94 129 164 209 174 200 4
-4 12 -31 18 -60z m-1206 -11 c9 -22 16 -54 16 -70 0 -24 -5 -31 -27 -36 -20
-6 -31 -2 -45 16 -10 12 -18 29 -18 37 0 18 41 93 51 93 4 0 14 -18 23 -40z
m170 20 c38 -14 33 -49 -13 -94 -31 -31 -45 -37 -64 -32 -29 7 -57 59 -57 105
0 31 0 31 54 31 30 0 66 -4 80 -10z m-126 -427 c6 -10 13 -37 17 -60 5 -31 3
-43 -8 -50 -8 -4 -41 -32 -72 -61 -31 -29 -60 -51 -63 -48 -8 9 26 112 59 179
30 58 51 71 67 40z m687 -3 c8 -13 -62 -114 -128 -187 -30 -32 -57 -71 -61
-88 -8 -32 -40 -80 -89 -132 -33 -35 -47 -41 -47 -21 0 20 52 151 70 178 9 14
20 48 23 75 9 83 21 103 74 125 27 11 64 28 83 39 40 21 66 25 75 11z m-615
-1062 c13 -72 8 -87 -27 -88 -7 0 -24 -16 -39 -35 -14 -19 -32 -35 -40 -35
-16 0 -64 61 -64 83 0 9 4 18 9 21 5 3 25 30 44 58 19 29 45 64 58 77 21 22
23 22 35 6 7 -9 18 -48 24 -87z m-110 -183 c40 -21 38 -37 -12 -76 -24 -18
-59 -51 -80 -73 -50 -56 -61 -42 -43 51 19 99 28 113 71 113 19 0 48 -7 64
-15z"/>
<path d="M8172 8170 c0 -14 2 -19 5 -12 2 6 2 18 0 25 -3 6 -5 1 -5 -13z"/>
<path d="M8182 8100 c0 -14 2 -19 5 -12 2 6 2 18 0 25 -3 6 -5 1 -5 -13z"/>
<path d="M2370 8653 c0 -16 31 -95 36 -90 2 2 -5 25 -16 53 -10 27 -19 43 -20
37z"/>
<path d="M2430 8505 c0 -5 5 -17 10 -25 5 -8 10 -10 10 -5 0 6 -5 17 -10 25
-5 8 -10 11 -10 5z"/>
<path d="M7030 8106 c0 -2 8 -10 18 -17 15 -13 16 -12 3 4 -13 16 -21 21 -21
13z"/>
<path d="M5535 3565 c-29 -28 -30 -43 -12 -88 21 -50 41 -62 77 -47 60 25 83
107 40 142 -32 26 -76 23 -105 -7z"/>
<path d="M1385 9090 c-10 -11 -14 -20 -9 -20 5 0 15 9 22 20 7 11 11 20 9 20
-2 0 -12 -9 -22 -20z"/>
<path d="M4358 6333 c-27 -31 -69 -103 -60 -103 13 0 48 41 67 78 19 39 16 51
-7 25z"/>
<path d="M4397 5748 c-15 -13 -30 -39 -35 -58 -8 -32 -13 -36 -108 -72 -165
-64 -293 -107 -405 -138 -122 -33 -304 -120 -437 -209 -83 -55 -150 -94 -272
-158 -30 -16 -65 -35 -77 -43 -19 -12 -24 -12 -41 3 -31 28 -62 21 -106 -26
-38 -40 -46 -44 -103 -50 -33 -4 -103 -20 -155 -36 -51 -16 -122 -37 -158 -46
-36 -9 -91 -27 -123 -40 l-58 -24 -39 39 c-35 35 -46 40 -85 40 -79 0 -120
-62 -95 -143 l12 -42 -43 -38 c-29 -25 -51 -37 -68 -36 -54 4 -81 -2 -106 -24
-22 -18 -27 -32 -29 -76 -3 -60 5 -51 -125 -144 -44 -32 -81 -65 -81 -73 0
-20 30 -4 140 75 83 59 112 71 125 51 4 -6 -19 -63 -51 -128 -64 -132 -212
-462 -271 -608 -24 -57 -28 -61 -77 -79 -28 -10 -57 -18 -65 -16 -10 2 -12
-15 -9 -81 3 -79 2 -84 -22 -103 -90 -72 -300 -258 -300 -266 0 -21 -45 -4
-48 18 -4 26 30 145 63 223 13 30 45 109 71 175 26 66 51 126 57 133 5 6 24
12 42 12 18 0 38 6 44 14 21 25 24 81 7 115 -19 36 -18 40 52 135 26 36 59 83
74 105 26 38 31 41 73 41 37 0 47 4 62 27 11 17 18 46 18 76 0 40 -4 52 -25
67 -41 32 -84 35 -124 11 -19 -12 -37 -28 -40 -37 -12 -32 -5 -82 15 -109 l22
-27 -42 -56 c-22 -32 -59 -87 -82 -124 -39 -64 -43 -67 -86 -74 -79 -12 -102
-57 -63 -122 11 -18 20 -41 20 -51 0 -11 -30 -85 -66 -166 -36 -80 -81 -195
-100 -255 l-34 -109 -38 -6 c-50 -8 -63 -16 -89 -55 -46 -67 -18 -154 59 -185
71 -28 131 -3 156 66 10 25 15 26 109 32 54 4 130 7 168 7 68 0 71 -1 98 -35
24 -30 34 -35 68 -35 53 0 75 13 98 59 l20 37 98 13 c54 7 147 21 207 32 60
11 161 27 224 35 l116 14 28 -35 c36 -43 86 -59 135 -42 47 16 72 51 81 112 6
39 13 52 32 62 37 19 201 95 310 143 52 24 101 47 107 53 9 6 22 1 44 -17 43
-37 97 -36 138 3 28 26 31 35 31 88 0 59 0 60 47 93 25 19 83 68 127 110 45
41 99 89 121 105 22 16 64 49 94 74 45 38 56 43 72 33 10 -7 36 -12 57 -12 30
0 45 7 70 33 34 35 41 79 23 143 -8 28 -4 37 43 98 50 66 52 67 86 60 117 -25
175 41 144 165 l-15 58 45 134 c25 74 61 171 80 217 20 46 43 109 52 140 9 31
30 82 46 113 19 38 35 93 48 167 10 61 24 121 31 134 7 12 15 47 18 77 6 53 7
55 41 62 74 15 102 94 57 160 -30 45 -91 53 -130 17z m-47 -158 c0 -5 -26 -23
-57 -40 -60 -31 -149 -92 -243 -167 -30 -24 -109 -84 -174 -135 l-119 -91 -33
18 c-18 10 -35 24 -38 31 -4 11 -12 11 -43 -2 -57 -23 -83 -57 -83 -108 0 -23
-5 -47 -12 -54 -9 -9 -7 -12 9 -12 11 0 26 -6 32 -14 6 -8 25 -19 41 -26 25
-10 30 -19 36 -66 7 -62 -2 -80 -50 -92 -23 -6 -36 -18 -51 -49 -11 -25 -30
-47 -45 -53 -19 -8 -393 -60 -431 -60 -5 0 -9 13 -9 29 0 34 24 54 119 101 34
17 61 33 61 35 0 7 -36 -9 -115 -49 -70 -36 -122 -45 -141 -26 -17 17 -76 -9
-110 -47 l-31 -35 -71 16 c-40 9 -95 25 -124 36 -29 10 -120 36 -201 56 -82
20 -145 40 -140 44 19 17 327 114 427 135 l109 22 48 -46 c27 -26 49 -53 50
-61 0 -9 3 -7 8 5 4 11 25 29 47 40 36 18 39 24 44 70 l5 50 90 45 c50 25 122
65 160 89 179 112 283 172 325 187 25 8 79 28 120 44 41 16 131 46 200 68 69
22 154 51 190 65 62 25 161 54 188 56 6 1 12 -3 12 -9z m20 -22 c0 -7 -35 -67
-78 -133 -43 -66 -93 -145 -111 -176 -31 -51 -38 -57 -75 -62 -48 -7 -82 -40
-92 -92 -5 -28 -31 -59 -139 -160 -73 -69 -137 -125 -143 -125 -18 0 -39 50
-46 107 l-7 53 41 16 c49 20 60 38 60 98 l0 45 133 101 c270 207 371 282 397
295 14 7 32 21 39 29 16 19 21 20 21 4z m-4 -221 c-8 -23 -32 -98 -52 -167
-38 -127 -89 -266 -148 -400 -19 -41 -44 -112 -57 -157 l-24 -83 -45 0 c-25 0
-58 -7 -74 -15 -15 -8 -32 -15 -36 -15 -4 0 -45 41 -91 91 -81 88 -83 92 -82
140 1 57 6 64 152 204 l103 99 40 -23 40 -23 39 27 c54 35 66 64 51 122 -11
41 -11 48 6 67 10 12 45 66 78 121 32 55 70 115 84 133 l25 32 3 -56 c2 -32
-3 -73 -12 -97z m-1911 -592 c61 -15 138 -36 173 -47 34 -11 102 -28 150 -37
85 -18 87 -19 90 -49 3 -27 -3 -35 -55 -70 -32 -22 -98 -73 -148 -114 -81 -66
-173 -139 -298 -235 -48 -37 -76 -41 -105 -15 -19 15 -22 38 -36 266 -17 267
-16 272 32 278 18 2 31 12 40 31 9 19 19 26 30 23 9 -3 67 -17 127 -31z m-285
-34 c0 -4 6 -73 14 -152 8 -79 17 -197 19 -262 5 -105 4 -118 -11 -115 -8 2
-19 14 -22 28 -4 14 -33 76 -64 137 -59 119 -63 137 -44 190 10 26 9 41 -1 70
l-14 37 44 38 c41 35 79 49 79 29z m1404 -37 c4 -10 -5 -26 -22 -42 -15 -15
-68 -65 -117 -112 -50 -47 -145 -138 -213 -203 -122 -116 -158 -137 -179 -104
-4 6 -13 75 -20 152 l-12 140 40 35 c27 24 39 43 39 62 0 32 -6 30 215 58 88
12 165 23 170 25 6 2 29 4 51 4 29 1 44 -4 48 -15z m251 -99 l82 -86 6 -74 5
-74 -66 -61 c-55 -50 -71 -60 -92 -55 -41 9 -109 -30 -117 -66 -3 -19 -13 -31
-27 -34 -11 -3 -122 -4 -246 -3 l-225 3 -9 26 c-8 24 6 40 229 261 l237 236
28 -27 c25 -23 30 -39 45 -141 18 -128 44 -240 54 -240 7 0 -6 98 -34 245 -8
44 -15 89 -15 99 0 17 45 76 58 76 2 0 41 -38 87 -85z m-873 -54 c32 -7 33 -9
40 -66 3 -33 8 -100 9 -150 l3 -90 -33 -16 c-42 -20 -61 -45 -61 -80 0 -16 -7
-30 -17 -34 -10 -4 -134 -9 -276 -12 -280 -6 -277 -7 -277 47 0 20 22 41 122
115 67 50 151 115 187 145 36 31 93 76 126 102 33 25 69 55 79 67 l19 21 23
-21 c12 -12 38 -24 56 -28z m-911 -104 c53 -84 119 -214 119 -233 0 -11 -9
-38 -21 -59 -15 -30 -19 -51 -15 -85 l6 -45 -83 -62 c-45 -34 -153 -116 -240
-182 -129 -99 -162 -119 -177 -111 -10 5 -20 16 -23 24 -4 9 25 80 62 160 38
79 72 155 76 168 4 12 56 123 116 246 94 195 110 222 131 222 16 0 31 -12 49
-43z m1819 -180 c0 -7 -7 -22 -15 -33 -13 -16 -16 -17 -25 -4 -5 8 -10 18 -10
21 0 5 33 24 48 28 1 1 2 -5 2 -12z m-245 -146 c25 -5 31 -12 38 -51 7 -33 6
-45 -3 -48 -18 -6 -204 -157 -280 -227 -36 -33 -84 -75 -108 -94 l-43 -33 -45
23 c-25 13 -49 31 -54 39 -8 15 -60 249 -60 270 0 5 17 18 37 27 29 14 39 26
46 55 l9 37 146 4 c257 5 286 5 317 -2z m-686 -65 c12 -18 21 -39 21 -45 0 -7
-33 -56 -73 -109 -41 -53 -109 -149 -152 -212 -43 -63 -90 -131 -105 -150 -15
-19 -40 -57 -55 -83 -33 -58 -41 -62 -93 -48 -29 8 -43 19 -52 41 -13 31 -50
175 -100 383 l-31 128 26 30 c14 17 28 41 31 55 l6 24 187 1 c158 1 218 4 353
17 9 1 26 -13 37 -32z m-759 -71 c7 -8 27 -17 46 -21 19 -3 39 -15 45 -25 5
-10 30 -101 55 -201 24 -101 54 -216 66 -256 l21 -72 -20 -23 c-11 -12 -26
-32 -33 -45 -8 -17 -16 -21 -28 -16 -92 39 -234 90 -306 110 -49 14 -98 30
-109 36 -11 5 -58 23 -105 39 -115 39 -132 51 -132 94 0 32 7 39 113 115 61
44 164 125 227 179 63 55 122 100 131 100 9 1 22 -6 29 -14z m874 -57 c9 -40
22 -105 28 -145 11 -70 11 -72 -15 -103 -27 -32 -34 -51 -39 -104 -3 -28 -14
-35 -213 -128 -259 -121 -290 -123 -218 -16 104 155 362 519 386 546 37 40 53
29 71 -50z m-1259 -444 c61 -25 206 -76 323 -113 118 -38 219 -74 225 -80 22
-22 -16 -39 -118 -51 -55 -6 -135 -15 -177 -20 -43 -5 -98 -16 -122 -24 -25
-9 -86 -21 -135 -27 l-90 -12 -36 32 c-61 53 -144 38 -168 -30 -6 -17 -36 -21
-237 -35 -82 -5 -98 -4 -109 10 -21 26 -1 57 76 119 37 30 113 95 168 146 78
72 104 90 120 85 11 -4 38 -9 61 -11 36 -4 45 -1 70 26 16 16 31 30 34 30 3 1
55 -20 115 -45z"/>
<path d="M3690 5250 c-6 -11 -8 -20 -6 -20 3 0 10 9 16 20 6 11 8 20 6 20 -3
0 -10 -9 -16 -20z"/>
<path d="M5741 5744 c-27 -22 -31 -32 -31 -75 0 -47 2 -50 49 -84 39 -28 50
-43 56 -73 16 -89 108 -366 125 -377 5 -3 30 -72 55 -153 27 -84 79 -213 122
-303 l75 -156 -26 -51 c-30 -59 -33 -100 -11 -147 25 -51 55 -62 110 -40 26 9
47 16 49 14 30 -47 86 -113 104 -125 23 -15 24 -20 17 -79 -11 -104 35 -158
115 -135 19 5 43 10 53 10 10 0 69 -48 130 -108 62 -59 141 -129 177 -156 l65
-48 -3 -63 c-3 -58 -1 -65 28 -99 27 -30 38 -36 73 -36 31 0 48 7 68 26 l28
27 63 -26 c76 -31 234 -100 303 -131 28 -13 66 -29 86 -35 35 -11 37 -14 42
-67 3 -31 12 -66 21 -78 19 -31 75 -56 122 -56 32 0 44 7 80 45 l42 46 139
-26 c76 -14 206 -34 288 -45 194 -24 201 -26 226 -67 46 -75 114 -82 173 -17
l31 34 110 -14 c61 -8 136 -18 168 -21 51 -6 59 -10 68 -33 25 -67 80 -86 151
-54 36 15 50 29 68 66 36 74 14 130 -73 189 -15 10 -39 38 -53 64 -26 43 -128
269 -180 398 -13 33 -28 67 -33 75 -6 11 -2 24 10 39 68 84 -46 168 -123 91
-26 -27 -29 -35 -23 -69 6 -37 4 -41 -55 -100 l-61 -61 -30 15 c-25 13 -58 74
-219 399 -105 211 -190 388 -190 393 0 6 11 22 25 37 13 14 29 45 35 68 10 36
9 44 -8 67 -27 37 -81 48 -132 28 l-40 -16 -25 49 c-21 42 -24 58 -19 107 6
54 4 60 -21 86 -48 47 -98 48 -153 2 -17 -14 -37 -25 -45 -25 -9 0 -80 18
-159 40 -79 23 -213 59 -298 81 -128 33 -160 45 -185 69 -35 34 -70 38 -115
15 -25 -13 -37 -13 -90 -1 -33 8 -60 10 -60 5 0 -5 7 -9 16 -9 35 0 94 -24 98
-39 2 -9 7 -33 10 -53 6 -31 12 -39 40 -48 32 -10 35 -15 45 -74 15 -86 16
-83 -31 -107 -24 -11 -53 -32 -65 -47 -21 -25 -26 -26 -110 -23 -48 1 -128 -3
-178 -9 -49 -6 -119 -13 -155 -16 -64 -6 -65 -6 -82 23 -10 17 -33 41 -53 54
-31 21 -35 28 -31 54 3 17 8 66 12 110 4 44 12 83 18 87 19 13 71 9 92 -7 29
-22 41 -18 15 6 -17 16 -21 28 -16 48 9 35 21 41 89 41 75 0 68 9 -15 18 l-62
7 -16 50 c-13 39 -23 53 -53 68 -20 11 -41 29 -46 41 -10 20 -11 20 -11 -6 -1
-22 -10 -32 -41 -48 l-41 -21 -77 69 c-77 69 -106 92 -331 256 -106 78 -136
106 -115 106 18 0 474 -154 524 -177 19 -9 38 -16 42 -15 30 7 347 -137 423
-192 60 -44 70 -45 50 -7 -11 23 -47 45 -167 105 -190 93 -239 112 -568 220
-283 92 -330 113 -330 147 0 11 -13 34 -29 50 -39 39 -96 40 -140 3z m459
-392 c52 -41 130 -104 172 -140 76 -66 77 -68 78 -115 0 -53 13 -87 34 -87 7
0 20 -8 29 -18 14 -15 15 -31 6 -122 -11 -124 -13 -130 -37 -130 -13 0 -42 35
-91 108 -40 59 -112 159 -162 222 -266 342 -350 465 -334 490 6 10 156 -92
305 -208z m-251 34 c29 -39 81 -109 115 -155 33 -46 88 -116 122 -155 33 -39
81 -100 105 -136 25 -36 71 -100 102 -142 l57 -77 -20 -33 c-24 -40 -25 -76
-4 -107 16 -22 16 -24 1 -33 -9 -4 -37 -24 -62 -43 -25 -19 -50 -35 -57 -35
-24 0 -100 74 -124 121 -50 99 -112 256 -143 359 -17 58 -47 137 -67 175 -41
78 -63 139 -99 267 -32 110 -32 134 -2 94 12 -16 46 -61 76 -100z m1516 -411
c61 -14 151 -38 200 -54 50 -17 126 -39 170 -51 44 -12 86 -28 94 -36 12 -11
11 -14 -10 -22 -13 -5 -141 -34 -283 -64 l-259 -55 -21 25 c-12 13 -37 32 -57
42 -34 18 -37 23 -43 82 -7 59 -6 63 19 81 14 11 32 32 41 48 8 16 20 29 27
29 6 0 62 -11 122 -25z m512 -210 c21 -14 43 -29 49 -34 12 -10 9 -319 -5
-470 l-6 -74 -40 -12 -40 -11 -125 108 c-69 59 -178 144 -242 187 -227 153
-228 155 -190 200 12 14 37 24 87 31 80 12 385 75 430 89 43 13 40 13 82 -14z
m168 -67 c31 -37 36 -48 31 -78 -4 -25 1 -50 18 -87 l24 -51 -22 -34 c-36 -53
-108 -189 -103 -194 2 -2 32 38 66 90 34 52 71 102 82 112 17 16 20 16 37 1 9
-8 36 -55 60 -104 24 -48 107 -216 184 -372 148 -298 152 -313 97 -319 -29 -3
-179 94 -358 232 -68 52 -129 97 -135 99 -7 2 -6 17 2 45 20 66 2 119 -49 141
l-39 16 0 90 c1 263 26 455 59 455 5 0 26 -19 46 -42z m-1021 -82 c8 -18 32
-48 54 -65 l40 -33 -2 -151 -1 -152 -31 -3 c-22 -2 -46 8 -92 40 -35 24 -104
71 -155 105 -51 34 -140 96 -199 139 -95 66 -108 80 -108 105 0 41 21 44 312
47 l168 2 14 -34z m293 -88 c31 -22 93 -66 137 -96 177 -120 346 -274 346
-316 0 -14 -4 -27 -9 -30 -5 -3 -121 1 -258 9 -136 8 -255 15 -265 15 -10 0
-19 11 -23 30 -9 39 -39 76 -70 84 l-25 6 0 149 0 148 40 12 c21 6 42 16 45
21 10 17 24 12 82 -32z m-918 -2 c8 -9 13 -72 16 -174 3 -170 3 -172 -45 -172
-9 0 -43 29 -74 64 l-56 64 0 69 0 70 58 46 c61 48 82 56 101 33z m190 -37
c42 -29 85 -60 96 -69 11 -10 88 -63 171 -118 83 -55 156 -108 163 -116 8 -9
11 -26 7 -39 -5 -23 -10 -24 -133 -30 -71 -4 -180 -7 -243 -7 l-115 0 -17 30
c-10 17 -31 38 -48 48 l-30 17 0 149 c0 125 3 152 17 168 25 28 50 22 132 -33z
m437 -421 c9 -18 25 -43 36 -54 18 -21 18 -23 2 -89 -31 -124 -67 -209 -94
-221 -66 -30 -73 -28 -158 49 -269 240 -267 238 -267 282 l0 40 170 7 c191 8
289 13 292 16 1 1 10 -13 19 -30z m589 -8 c135 -9 172 -15 180 -27 6 -9 23
-31 38 -49 l28 -32 -25 -89 c-14 -48 -32 -131 -41 -183 -30 -179 -47 -243 -71
-267 -23 -23 -59 -30 -79 -15 -25 17 -120 149 -206 282 -101 157 -124 191
-181 261 -40 48 -45 72 -26 115 l12 27 101 -6 c55 -3 177 -11 270 -17z m-319
-223 c56 -83 122 -183 147 -222 25 -38 73 -106 106 -150 34 -44 61 -85 61 -92
0 -16 -31 -32 -50 -25 -8 3 -80 34 -160 70 -80 35 -168 72 -196 82 -99 35
-112 45 -120 96 -3 25 -17 58 -31 74 l-24 29 41 128 c44 138 59 163 99 163 22
0 40 -21 127 -153z m808 55 c73 -61 287 -208 354 -244 26 -14 32 -23 32 -50 0
-32 -4 -36 -67 -67 -65 -32 -316 -121 -511 -181 l-92 -28 -26 33 -26 34 41
208 c23 114 49 239 59 277 l17 69 55 17 c63 20 54 24 164 -68z m808 -194 c44
-119 76 -196 133 -320 73 -157 73 -158 35 -187 l-31 -23 -52 48 c-29 27 -106
99 -173 161 l-121 113 -6 86 -6 85 52 53 c46 47 57 53 97 54 l45 2 27 -72z
m-383 -199 c38 -39 44 -41 85 -37 55 7 70 -2 182 -111 46 -45 118 -111 160
-148 56 -49 74 -71 72 -87 -3 -20 -8 -21 -83 -19 -44 1 -120 9 -169 17 -80 14
-93 20 -132 56 -56 52 -97 54 -149 9 -34 -30 -37 -31 -103 -24 -37 4 -96 13
-132 21 -66 15 -104 21 -309 51 -110 17 -138 30 -114 54 5 5 48 20 96 34 49
14 102 32 120 40 18 8 106 42 197 75 91 33 179 71 195 85 17 13 33 24 36 25 4
0 25 -19 48 -41z"/>
<path d="M3600 5616 c-44 -12 -90 -33 -90 -40 0 -7 170 33 188 43 25 15 -40
13 -98 -3z"/>
<path d="M8434 4465 c32 -31 84 -73 115 -93 31 -20 58 -38 60 -39 2 -2 -4 -20
-13 -42 -10 -21 -16 -47 -14 -57 6 -32 66 -64 118 -64 l47 0 43 -79 c41 -77
94 -141 106 -129 3 4 -12 37 -34 75 -80 138 -84 149 -67 183 25 49 19 88 -20
127 -37 37 -46 38 -128 17 -24 -6 -46 5 -150 75 l-122 82 59 -56z"/>
<path d="M1370 3745 c0 -5 11 -23 25 -40 13 -16 24 -25 24 -20 0 6 -11 24 -24
40 -14 17 -25 26 -25 20z"/>
</g>
</svg>
